<?xml version="1.0" encoding="UTF-8"?>
<svg id="Layer_2" data-name="Layer 2" xmlns="http://www.w3.org/2000/svg" viewBox="0 0 771.3 751.92">
  <g id="Layer_1-2" data-name="Layer 1">
    <path d="M747.31,614.84l-153.53-134.2c25.37-42.41,39.73-89.09,43.52-136.26-12.53,28.38-26.66,54.23-42.14,77.06-22.07,32.55-47.52,59.96-75.67,81.46-32.16,24.57-68.19,41.74-107.1,51.04-21.74,5.19-42.14,7.94-62.36,8.38h-.26s-.26,0-.26,0l-28.7-.05c-15.52-.03-30.19-2.02-42.72-4.36-7.04-1.2-13.98-2.71-20.81-4.51-24.52-6.19-47.15-15.71-67.35-28.4-15.41-9.68-29.42-21.2-41.88-34.39-43.93-43.85-71.12-104.48-71.12-171.45,0-133.78,108.45-242.24,242.24-242.24,9.73,0,19.32.58,28.75,1.69V1.28c-88.27-7.91-179.26,20.81-247.87,86.05l-12.69,12.72c-116.28,122.16-116.47,315.24-.52,437.7l13.37,13.43c103.14,97.8,259.23,115.16,380.47,42.63l154.49,134.78c32.06,32.03,83.19,30.43,113.55-.86,30.55-31.48,30.16-81.34-1.39-112.9Z"/>
    <path d="M121.31,302.9l249.25.05,61.69.37,46.17-.02,33.26-1.2c8.76-.32,16.98-1.62,25.54-3.38,11.14-2.3,21.46-6.34,31.29-12.03-9.63-11.94-14.29-26.76-16.13-41.79-1.96-23.59,3.2-49.59,16.33-69.36l6.32-9.52c15.09,9.33,27.86,21.14,37.61,35.62,8.63,12.81,13.48,27.41,14.29,42.61l12.22-2.49c17.08-2.37,34.14-1.68,50.96,2,5.75,1.6,11.36,2.84,16.27,6.09l11.29,7.47-8.72,17.1c-9.46,16.55-24.08,28.85-42.04,35.27-9.85,3.56-19.79,5.38-30.25,6.12l-22.69.27c-24.39,61.08-62.88,115.78-112.58,159.85-70.65,62.64-167.81,55.88-167.81,55.88-27.06,0-212.27-12.47-212.27-228.91Z"/>
    <rect x="206.14" y="138.68" width="64.53" height="64.63"/>
    <rect x="289.43" y="138.68" width="64.55" height="64.64"/>
    <rect x="122.84" y="220.06" width="64.54" height="64.53"/>
    <rect x="289.43" y="220.06" width="64.54" height="64.53"/>
    <rect x="206.14" y="220.06" width="64.53" height="64.54"/>
    <rect x="455.93" y="220.06" width="64.53" height="64.54"/>
    <rect x="372.63" y="138.68" width="64.55" height="64.64"/>
    <rect x="372.63" y="220.06" width="64.54" height="64.53"/>
    <rect x="372.63" y="57.71" width="64.54" height="64.2"/>
  </g>
</svg>